<svg xmlns="http://www.w3.org/2000/svg" xml:space="preserve" width="40" height="80" style="overflow:visible" viewBox="0 0 40 80"><g fill="#fff"><path d="M7.2 25.9c-.6 0-1-.5-1-1v-9.8c0-.6.5-1 1-1s1 .5 1 1v9.8c0 .5-.4 1-1 1"/><path d="M12.1 25.9H7.2c-.6 0-1-.5-1-1s.5-1 1-1h4.9c.6 0 1 .5 1 1s-.5 1-1 1m0-9.8H7.2c-.6 0-1-.5-1-1s.5-1 1-1h4.9c.6 0 1 .5 1 1s-.5 1-1 1M19.4 32c-.6 0-1-.5-1-1V9c0-.6.5-1 1-1s1 .5 1 1v22c0 .5-.4 1-1 1"/><path d="M12.1 16.1c-.3 0-.6-.1-.8-.4-.4-.4-.3-1.1.1-1.5l7.3-6.1c.4-.4 1.1-.3 1.5.1s.3 1.1-.1 1.5l-7.3 6.1c-.3.3-.5.3-.7.3M19.4 32c-.2 0-.5-.1-.7-.2l-7.3-6.1c-.4-.4-.5-1-.1-1.5.4-.4 1-.5 1.5-.1l7.3 6.1c.4.4.5 1 .1 1.5-.2.2-.5.3-.8.3m13.4-7.3c-.3 0-.5-.1-.7-.3l-7.3-7.3c-.4-.4-.4-1.1 0-1.5s1.1-.4 1.5 0l7.3 7.3c.4.4.4 1.1 0 1.5-.3.2-.5.3-.8.3"/><path d="M25.5 24.7c-.3 0-.5-.1-.7-.3-.4-.4-.4-1.1 0-1.5l7.3-7.3c.4-.4 1.1-.4 1.5 0s.4 1.1 0 1.5l-7.3 7.3c-.3.2-.6.3-.8.3"/></g><path fill="none" d="M0 0h40v40H0zm0 40h40v40H0z"/><g fill="#fff"><path d="M6.5 65.9c-.6 0-1-.5-1-1v-9.8c0-.6.5-1 1-1s1 .5 1 1v9.8c.1.5-.4 1-1 1"/><path d="M11.4 65.9H6.5c-.6 0-1-.5-1-1s.5-1 1-1h4.9c.6 0 1 .5 1 1s-.4 1-1 1m0-9.8H6.5c-.6 0-1-.5-1-1s.5-1 1-1h4.9c.6 0 1 .5 1 1s-.4 1-1 1M18.8 72c-.6 0-1-.5-1-1V49c0-.6.5-1 1-1s1 .5 1 1v22c0 .5-.5 1-1 1"/><path d="M11.4 56.1c-.3 0-.6-.1-.8-.4-.4-.4-.3-1.1.1-1.5l7.3-6.1c.4-.4 1.1-.3 1.5.1s.3 1.1-.1 1.5l-7.3 6.1c-.2.2-.4.3-.7.3M18.8 72c-.2 0-.5-.1-.7-.2l-7.3-6.1c-.4-.4-.5-1-.1-1.5.4-.4 1-.5 1.5-.1l7.3 6.1c.4.4.5 1 .1 1.5-.2.2-.5.3-.8.3m4.9-7.9c-.3 0-.5-.1-.7-.3-.4-.4-.4-1.1 0-1.5 1.2-1.3 1.2-3.4 0-4.7-.4-.4-.4-1.1 0-1.5s1.1-.4 1.5 0c2 2.1 2 5.5 0 7.6-.3.3-.6.4-.8.4"/><path d="M26.7 67.1c-.3 0-.5-.1-.7-.3-.4-.4-.4-1.1 0-1.5 2.9-3 2.9-7.8 0-10.8-.4-.4-.4-1.1 0-1.5s1.1-.4 1.5 0c3.6 3.8 3.6 9.9 0 13.7-.2.3-.5.4-.8.4"/><path d="M29.8 70.2c-.3 0-.5-.1-.7-.3-.4-.4-.4-1.1 0-1.5 4.5-4.7 4.5-12.2 0-16.9-.4-.4-.4-1.1 0-1.5s1.1-.4 1.5 0c5.3 5.5 5.3 14.3 0 19.8-.3.3-.6.4-.8.4"/></g></svg>