<svg xmlns="http://www.w3.org/2000/svg" xml:space="preserve" width="40" height="40" style="overflow:visible" viewBox="0 0 40 40"><g fill="#fff"><path d="M16.8 24c-.2 0-.5-.1-.6-.3-.4-.3-.4-.9 0-1.3l6.3-6.3c.3-.4.9-.4 1.3 0 .4.3.4.9 0 1.3l-6.3 6.3c-.2.3-.4.3-.7.3m6.4 8.5c-.1 0-.2 0-.3-.1-.5-.2-.7-.7-.5-1.1l8.4-23.2c.2-.5.7-.7 1.1-.5.5.2.7.7.5 1.1L24 31.9c-.1.4-.5.6-.8.6"/><path d="M8.4 17.7c-.4 0-.7-.2-.8-.6-.2-.5.1-1 .5-1.1l23.2-8.4c.5-.2 1 .1 1.1.5.2.5-.1 1-.5 1.1L8.7 17.7z"/><path d="M16.8 24c-.2 0-.4-.1-.5-.2l-8.4-6.3c-.4-.3-.5-.9-.2-1.3s.9-.5 1.3-.2l8.4 6.3c.4.3.5.9.2 1.3-.2.3-.5.4-.8.4"/><path d="M23.2 32.5c-.3 0-.5-.1-.7-.4l-6.3-8.4c-.3-.4-.2-1 .2-1.3s1-.2 1.3.2L24 31c.3.4.2 1-.2 1.3-.3.1-.5.2-.6.2"/></g><path fill="none" d="M0 0h40v40H0z"/></svg>