<svg xmlns="http://www.w3.org/2000/svg" width="24" height="24" fill="none" viewBox="0 0 24 24"><path fill="#878787" d="M12 22.03c-5.5 0-9.98-4.475-9.98-9.98S6.5 2.075 12 2.075s9.98 4.475 9.98 9.98-4.475 9.98-9.98 9.98zm0-18.955c-4.95 0-8.975 4.025-8.975 8.975s4.025 8.98 8.98 8.98 8.98-4.025 8.98-8.98S16.95 3.075 12 3.075"/><path fill="#878787" d="M14.525 15.075a.5.5 0 0 1-.355-.145L9.125 9.885a.498.498 0 1 1 .705-.705l5.045 5.045a.498.498 0 0 1-.355.85z"/><path fill="#878787" d="M7.515 17.035c-.13 0-.26-.05-.355-.145a.51.51 0 0 1-.13-.49l1.96-7.005a.49.49 0 0 1 .345-.345l7.005-1.96c.175-.05.36 0 .49.13s.175.315.13.49L15 14.715a.49.49 0 0 1-.345.345L7.65 17.02a.6.6 0 0 1-.135.02zm2.37-7.1-1.645 5.88 5.88-1.645 1.645-5.88z"/></svg>