<svg xmlns="http://www.w3.org/2000/svg" width="24" height="24" fill="none" viewBox="0 0 24 24"><path fill="#878787" d="M12 21.98c-5.5 0-9.98-4.475-9.98-9.98S6.5 2.025 12 2.025s9.98 4.475 9.98 9.98-4.475 9.98-9.98 9.98zm0-18.955C7.05 3.025 3.025 7.05 3.025 12s4.025 8.98 8.98 8.98 8.98-4.025 8.98-8.98S16.95 3.025 12 3.025"/><path fill="#878787" d="M12 14.225a3.95 3.95 0 0 1-3.945-3.945A3.95 3.95 0 0 1 12 6.335a3.95 3.95 0 0 1 3.945 3.945A3.95 3.95 0 0 1 12 14.225m0-6.895a2.947 2.947 0 0 0-2.945 2.945A2.947 2.947 0 0 0 12 13.22a2.947 2.947 0 0 0 2.945-2.945A2.947 2.947 0 0 0 12 7.33M5.97 19.81a.5.5 0 0 1-.5-.5v-1.28c0-.275.225-.5.5-.5s.5.225.5.5v1.28c0 .275-.225.5-.5.5m12.065 0a.5.5 0 0 1-.5-.5v-1.28c0-.275.225-.5.5-.5s.5.225.5.5v1.28c0 .275-.225.5-.5.5"/><path fill="#878787" d="M18.035 18.53a.5.5 0 0 1-.5-.5c0-2.1-1.71-3.81-3.81-3.81a.5.5 0 0 1-.5-.5c0-.275.225-.5.5-.5 2.65 0 4.81 2.155 4.81 4.81 0 .275-.225.5-.5.5m-12.065 0a.5.5 0 0 1-.5-.5c0-2.65 2.155-4.81 4.81-4.81.275 0 .5.225.5.5s-.225.5-.5.5c-2.1 0-3.81 1.71-3.81 3.81 0 .275-.225.5-.5.5"/><path fill="#878787" d="M13.725 14.225H10.28a.5.5 0 0 1-.5-.5c0-.275.225-.5.5-.5h3.445c.275 0 .5.225.5.5s-.225.5-.5.5"/></svg>