<svg xmlns="http://www.w3.org/2000/svg" width="24" height="24" fill="none" viewBox="0 0 24 24"><path fill="#878787" d="M5.09 12.785a.538.538 0 0 1-.46-.805c.45-.775 1.425-2.25 2.865-3.46C8.945 7.305 10.46 6.69 12 6.69a.536.536 0 0 1 0 1.07c-2.71 0-5.105 2.46-6.45 4.76-.1.17-.28.265-.46.265"/><path fill="#878787" d="M12 17.815c-1.54 0-3.055-.615-4.505-1.83-1.445-1.21-2.415-2.69-2.865-3.46a.53.53 0 0 1 .19-.73.53.53 0 0 1 .73.19c1.345 2.3 3.74 4.76 6.45 4.76a.536.536 0 0 1 0 1.07"/><path fill="#878787" d="M12 17.815a.536.536 0 0 1 0-1.07c2.71 0 5.105-2.46 6.45-4.76a.53.53 0 0 1 .73-.19c.255.15.34.475.19.73-.45.775-1.425 2.25-2.865 3.46-1.45 1.215-2.965 1.83-4.505 1.83"/><path fill="#878787" d="M18.915 12.785a.53.53 0 0 1-.46-.265c-1.345-2.3-3.74-4.76-6.45-4.76a.536.536 0 0 1 0-1.07c1.54 0 3.055.615 4.505 1.83 1.445 1.21 2.415 2.69 2.865 3.46.15.255.065.58-.19.73a.5.5 0 0 1-.27.075"/><path fill="#878787" d="M12 15.615a3.364 3.364 0 0 1-3.36-3.36c0-1.85 1.51-3.36 3.36-3.36s3.36 1.51 3.36 3.36-1.51 3.36-3.36 3.36m0-5.655a2.3 2.3 0 0 0-2.295 2.295A2.3 2.3 0 0 0 12 14.55a2.3 2.3 0 0 0 2.295-2.295A2.3 2.3 0 0 0 12 9.96"/><path fill="#878787" d="M12 21.98c-5.5 0-9.98-4.475-9.98-9.98S6.5 2.025 12 2.025s9.98 4.475 9.98 9.98-4.475 9.98-9.98 9.98zm0-18.955C7.05 3.025 3.025 7.05 3.025 12s4.025 8.98 8.98 8.98 8.98-4.025 8.98-8.98S16.95 3.025 12 3.025"/></svg>