<svg xmlns="http://www.w3.org/2000/svg" width="24" height="24" fill="none" viewBox="0 0 24 24"><path fill="#878787" d="M12.425 17.185A5.16 5.16 0 0 1 7.27 12.03a5.164 5.164 0 0 1 5.155-5.155 5.164 5.164 0 0 1 5.155 5.155 5.164 5.164 0 0 1-5.155 5.155m0-9.31A4.16 4.16 0 0 0 8.27 12.03a4.16 4.16 0 0 0 4.155 4.155 4.16 4.16 0 0 0 4.155-4.155 4.16 4.16 0 0 0-4.155-4.155"/><path fill="#878787" d="M7.015 17.94a.498.498 0 0 1-.355-.85l2.12-2.115a.498.498 0 1 1 .705.705l-2.12 2.115c-.1.1-.225.145-.355.145z"/><path fill="#878787" d="M12.215 21.98c-5.5 0-9.98-4.475-9.98-9.98s4.475-9.975 9.98-9.975 9.98 4.475 9.98 9.98-4.475 9.98-9.98 9.98zm0-18.955c-4.95 0-8.98 4.025-8.98 8.975s4.025 8.98 8.98 8.98 8.98-4.025 8.98-8.98-4.03-8.975-8.98-8.975"/></svg>