<svg width="8" height="15" viewBox="0 0 8 15" fill="none" xmlns="http://www.w3.org/2000/svg">
<path d="M-1.0042e-06 1.15582C-9.913e-07 0.860778 0.112104 0.565738 0.339264 0.338558C0.790633 -0.112853 1.52226 -0.112853 1.97363 0.338558L7.66147 6.02692C8.11284 6.47833 8.11284 7.21003 7.66147 7.66144C7.2101 8.11285 6.47847 8.11285 6.0271 7.66144L0.339264 1.97308C0.115055 1.74885 -1.01709e-06 1.45086 -1.0042e-06 1.15582Z" fill="white"/>
<path d="M-1.28276e-06 13.1286C-1.26857e-06 12.804 0.112104 12.4795 0.339264 12.2296L6.0271 5.97239C6.47847 5.47584 7.2101 5.47584 7.66147 5.97239C8.11284 6.46894 8.11284 7.27381 7.66147 7.77036L1.97363 14.0276C1.52226 14.5241 0.790633 14.5241 0.339264 14.0276C0.115054 13.7809 -1.29695e-06 13.4531 -1.28276e-06 13.1286Z" fill="white"/>
</svg>
