<!--Generator: Adobe Illustrator 25.0.0, SVG Export Plug-In-->
<svg version="1.1" xmlns="http://www.w3.org/2000/svg" xmlns:xlink="http://www.w3.org/1999/xlink" x="0px" y="0px" width="284px" height="1420px" viewBox="0 0 284 1420" style="overflow:visible;enable-background:new 0 0 284 1420;" xml:space="preserve">
    <style type="text/css">
        .st0{fill:none;}
	.st1{fill:#333333;}
    </style>
    <defs/>
    <rect x="0" class="st0" width="284" height="284"/>
    <g>
        <g>
            <path class="st1" d="M189.9,94.1c0-26.4-21.4-47.9-47.9-47.9c-26.4,0-47.9,21.4-47.9,47.9c-26.4,0-47.9,21.4-47.9,47.9
			c0,26.4,21.4,47.9,47.9,47.9c0,26.4,21.4,47.9,47.9,47.9c26.4,0,47.9-21.4,47.9-47.9c26.4,0,47.9-21.4,47.9-47.9
			C237.8,115.6,216.3,94.1,189.9,94.1z M142,167.2c-13.9,0-25.2-11.3-25.2-25.2c0-13.9,11.3-25.2,25.2-25.2s25.2,11.3,25.2,25.2
			C167.2,155.9,155.9,167.2,142,167.2z"/>
        </g>
    </g>
    <g id="_x34_5_1_">
        <g>
            <path class="st1" d="M237.8,398.9h-21.3c-26.2,0-47.3-21.2-47.3-47.3v-21.3h-54.2v21.3c0,26.2-21.2,47.3-47.3,47.3H46.2v54.2h21.3
			c26.2,0,47.3,21.2,47.3,47.3v21.3h54.2v-21.3c0-26.2,21.2-47.3,47.3-47.3h21.3V398.9z"/>
        </g>
    </g>
    <rect x="0" y="284" class="st0" width="284" height="284"/>
    <path class="st1" d="M125.3,670.1c2.2-15.4,4.2-30,6.5-44.6c0.8-5,2.3-10,4.3-14.6c1.2-2.7,4.1-4.7,6.3-7c2,2.3,5,4.2,5.8,6.9
	c2.6,8.5,5,17.2,6.5,26c1.8,10.7,2.7,21.6,4,33.3c1.6-1.2,2.9-2.1,4.2-3c12.6-9.3,25-18.8,37.7-27.8c3.5-2.5,7.9-3.9,12-5.1
	c4.1-1.1,6.3,0.9,5.4,5.1c-0.8,3.7-2,7.6-4.2,10.7c-9,12.9-18.5,25.6-27.8,38.3c-1.1,1.5-2.4,3-4.3,5.3c6.7,0.7,12.6,0.9,18.4,1.9
	c13,2.2,25.9,4.6,38.7,7.5c3.9,0.9,9.6,2.3,9,7.1c-0.4,2.7-5.4,6.1-8.8,6.8c-16.8,3.4-33.8,6-50.8,8.9c-1.8,0.3-3.7,0.4-6.6,0.7
	c1.9,2.4,3.3,3.9,4.5,5.5c9,12.1,18.1,24.2,26.8,36.5c2.4,3.5,4,7.9,5,12c1.1,4.4-1.2,6.6-5.6,5.4c-4.2-1.1-8.5-2.7-12-5.1
	c-11.7-8.1-23-16.7-34.5-25.1c-2.2-1.6-4.3-3.6-7.3-6.1c-0.6,6.2-0.9,11.6-1.7,16.8c-2.3,13.3-4.6,26.6-7.4,39.8
	c-0.9,4.1-2.1,9.8-7.3,9.8c-5.2,0-6.5-5.7-7.3-9.8c-3.1-16.7-5.7-33.5-8.5-50.3c-0.3-1.7-0.3-3.4-0.6-6.2c-2.2,1.7-3.6,2.9-5,3.9
	c-12,8.9-23.9,17.9-35.9,26.7c-2.5,1.8-5.4,3.5-8.4,4.2c-3,0.8-6.3,0.4-9.5,0.5c0.2-3.2-0.2-6.6,0.8-9.5c1.4-3.9,3.5-7.8,5.9-11.1
	c8.1-11.1,16.4-21.9,24.7-32.8c1.1-1.5,2.4-2.9,4.2-5.1c-9-0.9-17-1.3-24.9-2.7c-11.2-2-22.4-4.3-33.4-7.2c-3.1-0.8-5.6-4.2-8.4-6.4
	c2.8-2.3,5.3-5.7,8.5-6.9c16.3-6,33.5-7.4,50.7-9c2.1-0.2,4.1-0.3,7.3-0.6c-1.5-2.1-2.5-3.3-3.5-4.6c-9.6-13.2-19.4-26.3-28.8-39.6
	c-2-2.8-3.1-6.3-3.9-9.7c-1.1-4.7,1.2-7.2,5.8-5.6c5.4,1.8,11,4.1,15.6,7.3c11.4,8,22.2,16.6,33.3,25
	C122.4,667.7,123.7,668.8,125.3,670.1z"/>
    <rect x="0" y="568" class="st0" width="284" height="284"/>
    <path class="st1" d="M142.3,1091.6c-7.2-6-13.9-12-21.2-17.4c-2.4-1.8-6-2.9-9-2.9c-7.5,0-15,0.8-22.5,1.5c-3.7,0.4-5.3-0.9-6-4.6
	c-1.6-7.4-3.3-14.7-5.6-21.8c-0.9-2.9-3.1-5.8-5.6-7.6c-6.1-4.4-12.5-8.3-19.1-12c-3.4-1.9-3.6-3.9-2.2-7.2
	c3.6-8.6,9.4-17.3,9.3-25.9c-0.1-8.7-6.1-17.3-9.6-25.9c-0.4-1.1-0.7-2.2-1.3-4c7.6-4.8,15.4-9.3,22.9-14.5c2.5-1.7,4.6-4.8,5.5-7.6
	c2.3-7.1,4.1-14.5,5.6-21.8c0.8-4.1,2.8-5,6.6-4.5c4.5,0.6,9.2,0.1,13.6,1.2c9.9,2.3,17.5-1,24.3-8c4.2-4.4,9.3-7.9,14.2-12
	c6.9,5.8,13.6,11,19.8,16.8c3.5,3.2,7.2,4.2,11.8,3.7c8.4-0.9,16.9-1.3,25.6-1.9c2.3,9.1,4.1,17.8,6.7,26.2c1,3,3.3,6.2,5.9,8.1
	c6.1,4.4,12.6,8.3,19.1,12c3,1.7,3.6,3.4,2.2,6.6c-3.2,7.2-6.2,14.6-8.8,22c-0.8,2.3-0.9,5.4,0,7.7c2.4,7.1,5.3,14.1,8.4,20.9
	c1.8,3.9,1.7,6.2-2.5,8.5c-6.4,3.5-12.7,7.4-18.6,11.7c-2.4,1.8-4.6,4.8-5.5,7.7c-2.2,7-4,14.1-5.4,21.3c-0.8,4.3-2.9,5.3-6.9,4.9
	c-7.5-0.8-15-1.4-22.5-1.5c-2.5-0.1-5.5,0.8-7.4,2.3C156.9,1079.1,149.9,1085.3,142.3,1091.6z"/>
    <rect y="852" class="st0" width="284" height="284"/>
    <path class="st1" d="M181,1305.8c7.4,0,14.7,0,22.1,0c7.2,0,14.3,0,21.4,0c3.8,20.4-15,46-38.5,53c-15.4,4.6-30.2,2.8-44.1-5.3
	c-13.7-8-22.2-20-27.2-35.2c0,14,0,28,0,41.9c-19.6,4.3-45.9-14.7-53.1-37.7c-9.6-30.8,5.3-56.8,41-72.1c-14.2,0-28.5,0-42.6,0
	c-2.9-16.4,10.2-43.6,35.8-52.3c15.7-5.4,31.1-4.3,45.6,3.8c14.5,8.1,23.3,20.7,28.5,36.5c0-6.4,0-12.8,0-19.2
	c0-6.5,0.2-13.1-0.1-19.6c-0.2-3.9,1.3-4.8,5-4.6c25.4,1.8,47.6,23.4,50.1,49.1c2.7,28.1-13.7,52-40.8,59.8
	c-1.1,0.3-2.2,0.8-3.3,1.1C180.9,1305.2,181,1305.5,181,1305.8z M114.5,1277.6c0,8,0.1,16.1,0,24.1c0,3,0.9,4.1,4,4.1
	c15.9-0.1,31.8-0.1,47.7,0c2.8,0,3.9-1,3.9-3.8c-0.1-15.9-0.1-31.8,0-47.7c0-3-1-4.2-4.1-4.1c-15.7,0.1-31.5,0.1-47.2,0
	c-3.3,0-4.4,1.1-4.3,4.4C114.6,1262.2,114.5,1269.9,114.5,1277.6z"/>
    <rect y="1136" class="st0" width="284" height="284"/>
</svg>
