<svg xmlns="http://www.w3.org/2000/svg" width="156" height="55" fill="none" viewBox="0 0 156 55"><path fill="#003680" d="M111.933 27.27c-1.255.263-3.398.78-4.502.982v-.94c.33-.041.675-.09 1.126-.16a5.8 5.8 0 0 0-.379-1.477h.847c.191.503.276.953.315 1.362l.754-.124.423-1.238h.796l-.365 1.095.985-.168zm-.722-4.219h-3.462v1.75c0 .318.258.576.578.576h3.462v-1.748a.576.576 0 0 0-.578-.577m-.322 1.625h-2.246v-.927h2.246zm.899-2.813.001.762-4.042.001-.001-.764zm-4.042-1.012v-1.736h.858v1.558h.733v-1.876h.856v1.876h.733v-1.56h.858v2.317h-3.462a.576.576 0 0 1-.578-.577z"/><path fill="#003680" d="m117.335 27.518-.159.826c-.507.03-1.244.042-1.523-.01-.509-.085-.667-.401-.667-.963l-.008-7.487h-1.092v3.924c.002 1.842-.036 3.26-1.141 4.53h-.973c1.083-1.187 1.216-2.847 1.216-4.53v-4.696h2.407c.32 0 .579.257.579.575v7.525c0 .2.07.298.278.316.191.01.655.022 1.083-.01m10.801-.998v-.656c.488.43 1.241.884 2.429 1.248v-.889c-.967-.29-1.975-1.016-2.32-1.641h2.319v-.79h-2.502v-3.237h1.626v-.787h-1.629v-.962h-.942v.962h-3.135v-.962h-.944v.964h-1.626v.787h1.626v3.238h-2.499v.788h2.318c-.345.626-1.351 1.354-2.318 1.643v.888c1.186-.364 1.944-.817 2.427-1.249v.656h2.091v1.037h-3.555v.79h8.098v-.793h-3.554V26.52h2.088zm-4.142-5.965h3.116v.554h-3.116zm0 1.343h3.116v.556h-3.116zm0 1.345h3.116v.552h-3.116zm1.059 1.676v.816h-1.943c.506-.481.739-.91.84-1.15h3.205c.101.24.336.665.842 1.15h-1.945v-.816h-1.001zm-8.481 11.422h-8.92v.788h8.92zm-7.234 3.879c-.033-.157-.067-.424-.1-.58h1.002c.022.158.056.425.077.58h3.694c.043-.157.077-.424.1-.58h1.008c-.044.168-.077.447-.111.58h1.631v.794h-8.965v-.794zm-.65-8.502v3.22c0 .111.055.166.178.166h2.836v-3.543h.865v3.544h2.748c.11 0 .177-.034.177-.112V31.75h.881v3.477c0 .457-.3.691-.877.691h-6.857c-.466 0-.742-.234-.831-.681v-3.522h.88z"/><path fill="#003680" d="M110.626 31.637v.289h.786v.586h-.786v.431h.742v.564h-.742v.42h.798v.586h-.798v.41h-.788v-.41h-.755v-.587h.755v-.42h-.689v-.562h.689v-.432h-.766v-.586h.766v-.29zm4.426 5.743h-6.758v2.033h6.945c.721-.055 1.088-.413 1.088-1.061 0-.603-.432-.928-1.275-.973m-.056 1.323h-5.921v-.597l5.854-.012c.277.012.527.09.527.29 0 .242-.228.307-.461.319zm-.62-7.065v.312h.709v.585h-.709v.421h.687v.563h-.687v.396h.731v.587h-.731v.421h-.811v-.42h-.688v-.588h.688v-.396h-.654v-.563h.654v-.421h-.676v-.585h.676v-.312zm13.857 6.219c.891.02 1.343.436 1.353 1.016-.022.514-.117.962-.162 1.287l.739.061v.794h-9.386v-.855h.975l-.011-2.315zm-5.921-3.791h1.494c.976 0 1.475.515 1.475 1.53-.022 1.017-.543 1.458-1.576 1.458-.377 0-.711-.021-1.021-.067l-.011-.808c.377.033.766.075 1.165.045.308-.024.605-.196.612-.694.006-.501-.302-.627-.523-.672h-1.66a30 30 0 0 1-.267 2.65l-1.014.01c.245-1.206.366-2.491.366-3.843.011-.403.021-.86.021-1.374h4.139c-.021-.267-.021-.525-.021-.794h.913c-.021.293-.021.548.01.794h1.338a7 7 0 0 0-.333-.648h.955c.111.223.211.446.3.648h.966v.836l-3.122-.012c.116.785.458 1.566.862 2.036.36-.34.672-.783.806-1.229h.993c-.221.76-.718 1.466-1.251 1.99.478.404 1.236.664 1.913.81v.959c-1.065-.2-1.931-.603-2.585-1.207a7.4 7.4 0 0 1-1.72.804v-.932a6 6 0 0 0 1.076-.537c-.499-.682-.895-1.666-1.049-2.694h-3.241c0 .28-.011.672-.011.94zm1.712 6.094v-1.495h-1.289v1.495zm2.186 0v-1.495h-1.279v1.495zm2.253 0c.089-.503.132-.874.132-1.075 0-.234-.199-.42-.576-.42h-.902v1.495zm14.25-7.032q.68 1.107.742 3.017c0 1.586-.233 2.716-.677 3.386-.466.85-1.143 1.33-2.02 1.464h-6.402v-9.262h6.325c.855.112 1.53.581 2.03 1.397zm-1.985 6.983c.576-.078 1.123-.548 1.368-1.23.276-.682.422-1.564.422-2.647-.022-1.05-.189-1.889-.488-2.492-.31-.649-.89-1.13-1.49-1.197h-5.272v7.566zm-4.009-6.1c-.067-.268-.132-.537-.199-.794h.843c.067.257.133.525.2.794h.466c.11-.28.189-.57.244-.86h.933c-.089.312-.178.59-.277.86h.622q.182-.421.3-.828h.754a8 8 0 0 1-.288.828h.81v.697h-2.542c-.089.157-.166.352-.244.486h3.118v.709h-1.11c.246.309.724.571 1.279.688v.888c-.327-.045-.736-.184-.979-.34 0 .056.012.1.012.146 0 .28-.067.503-.2.682a.73.73 0 0 1-.576.257h-1.687v-.703h1.386c.178 0 .277-.067.277-.224 0-.146-.122-.234-.355-.268h-1.987c-.012.437-.012.828-.012 1.185 0 .325.145.48.455.48q2.96 0 3.106-.067v.827c-.233.034-1.398.045-3.495.045-.622-.066-.921-.446-.921-1.14 0-.469 0-.905.012-1.306a6.4 6.4 0 0 1-.865.57v-.961c.31-.224.749-.48.957-.756h-.89v-.709h1.465c.111-.133.212-.34.3-.486h-1.52v-.697h.61zm3.087 2.38c-.133-.134-.255-.341-.356-.487h-1.53c-.123.157-.255.353-.389.487z"/><path fill="url(#paint0_linear_9363_3891)" d="M49.205 18.85h6.028v22.194h-6.028zm9.856 0h7.559l4.05 7.95c.83 1.59 3.125 6.423 3.763 7.98h.064c-.095-1.653-.191-6.454-.191-8.998V18.85h5.326v22.193h-7.464l-3.922-7.409c-1.403-2.67-3.413-6.962-4.019-8.425h-.063c.095 1.367.159 6.55.159 8.457v7.377H59.06zm24.397 0h15.309v4.261h-9.408v4.58h8.834v4.26H89.36v4.801h9.726v4.292H83.458zM39.767 32.635l-.004 1.414v6.995h5.772V18.85h-7.093c-.429 3.179-1.168 5.995-2.18 8.403-1.367 3.258-3.16 5.114-4.681 5.114s-3.248-1.856-4.616-5.114c-1.01-2.407-1.748-5.224-2.179-8.403h-7.16v22.193h5.76V30.595c2.134 4.174 5.065 6.448 8.193 6.448s6.057-2.36 8.18-6.683v2.274z"/><defs><linearGradient id="paint0_linear_9363_3891" x1="84.126" x2="32.586" y1="4.255" y2="55.954" gradientUnits="userSpaceOnUse"><stop stop-color="#003387"/><stop offset=".2" stop-color="#00358a"/><stop offset=".52" stop-color="#0057a9"/><stop offset="1" stop-color="#0093ff"/></linearGradient></defs></svg>